{"title":"[24/96] Revolting Cocks - Beers, Steers &amp; Queers - 1990, Vin","uid":8429690,"size":1021746265,"categoryP":"audio","categoryS":"flac","magnet":"?xt=urn:btih:511c864d388d574a28248aa387d1d4e7310519fb&amp;dn=%5B24%2F96%5D+Revolting+Cocks+-+Beers%2C+Steers+%26amp%3B+Queers+-+1990%2C+Vin&amp;tr=udp%3A%2F%2Ftracker.openbittorrent.com%3A80&amp;tr=udp%3A%2F%2Fopen.demonii.com%3A1337&amp;tr=udp%3A%2F%2Ftracker.coppersurfer.tk%3A6969&amp;tr=udp%3A%2F%2Fexodus.desync.com%3A6969","seeders":0,"leechers":2,"uploader":"npto","files":-1,"time":1367454765,"description":"Revolting Cocks - Beers, Steers &amp; Queers - 1990\n\nWax Trax! Records, US\n\nLP, Vinyl Rip. 24/96, FLAC (image+.cue)\n\n A1 Beers, Steers &amp; Queers 5:10\n A2 (Let's Get) Physical 4:47\n A3 In The Neck 5:32\n A4 Get Down 7:02\n\n B1 Stainless Steel Providers 5:44\n B2 Can't Sit Still 5:33\n B3 Something Wonderful 4:36\n B4 Razor's Edge 4:45\n\nVinyl: VG+\n- SL-1210 mk2.\n- analog CREEK OBH-8SE\n- M-Audio Audiophile 192.\n- Sound Forge 9.0\n\n.cue\n\n REM GENRE &quot;Industrial&quot;\n REM DATE &quot;1990&quot;\n REM Label &quot;Wax Trax! Records&quot;\n PERFORMER &quot;Revolting Cocks&quot;\n TITLE &quot;Beers, Steers, &amp; Queers&quot;\n FILE &quot;Revolting Cocks - Beers, Steers, &amp; Queers .flac&quot; WAVE\n TRACK 01 AUDIO\n TITLE &quot;Beers, Steers &amp; Queers&quot;\n PERFORMER &quot;Revolting Cocks&quot;\n INDEX 01 00:00:00\n TRACK 02 AUDIO\n TITLE &quot;(Let's Get) Physical&quot;\n PERFORMER &quot;Revolting Cocks&quot;\n INDEX 01 06:04:10\n TRACK 03 AUDIO\n TITLE &quot;In The Neck&quot;\n PERFORMER &quot;Revolting Cocks&quot;\n INDEX 01 10:25:32\n TRACK 04 AUDIO\n TITLE &quot;Get Down&quot;\n PERFORMER &quot;Revolting Cocks&quot;\n INDEX 01 16:00:60\n TRACK 05 AUDIO\n TITLE &quot;Stainless Steel Providers&quot;\n PERFORMER &quot;Revolting Cocks&quot;\n INDEX 01 22:52:50\n TRACK 06 AUDIO\n TITLE &quot;Can't Sit Still&quot;\n PERFORMER &quot;Revolting Cocks&quot;\n INDEX 01 28:56:36\n TRACK 07 AUDIO\n TITLE &quot;Something Wonderful&quot;\n PERFORMER &quot;Revolting Cocks&quot;\n INDEX 01 34:23:02\n TRACK 08 AUDIO\n TITLE &quot;Razor's Edge&quot;\n PERFORMER &quot;Revolting Cocks&quot;\n INDEX 01 39:02:59","torrent":{"xt":"urn:btih:511c864d388d574a28248aa387d1d4e7310519fb","amp;dn":"%5B24%2F96%5D+Revolting+Cocks+-+Beers%2C+Steers+%26amp%3B+Queers+-+1990%2C+Vin","amp;tr":["udp%3A%2F%2Ftracker.openbittorrent.com%3A80","udp%3A%2F%2Fopen.demonii.com%3A1337","udp%3A%2F%2Ftracker.coppersurfer.tk%3A6969","udp%3A%2F%2Fexodus.desync.com%3A6969"],"infoHash":"511c864d388d574a28248aa387d1d4e7310519fb","infoHashBuffer":{"type":"Buffer","data":[81,28,134,77,56,141,87,74,40,36,138,163,135,209,212,231,49,5,25,251]},"announce":[],"urlList":[]}}